HIERARCHY
ROOT pelvis
{
  OFFSET 0 100 0
  CHANNELS 6 Xposition Yposition Zposition Zrotation Xrotation Yrotation
  JOINT pelvis_right_femur
  {
    OFFSET -10.78128 -3.44521 -0.5502486
    CHANNELS 3 Zrotation Xrotation Yrotation
    JOINT right_femur_tibia
    {
      OFFSET -0.8047443 -44.0398 -0.1307829
      CHANNELS 3 Zrotation Xrotation Yrotation
      JOINT right_tibia_foot
      {
        OFFSET 3.006224 -47.83518 -5
        CHANNELS 3 Zrotation Xrotation Yrotation
        End Site
        {
          OFFSET 0 -5 15
        }
      }
    }
  }
  JOINT pelvis_left_femur
  {
    OFFSET 10.78128 -3.44521 -0.5502486
    CHANNELS 3 Zrotation Xrotation Yrotation
    JOINT left_femur_tibia
    {
      OFFSET 0.8047443 -44.0398 -0.1307829
      CHANNELS 3 Zrotation Xrotation Yrotation
      JOINT left_tibia_foot
      {
        OFFSET -4.370144 -48.10324 -4.275266
        CHANNELS 3 Zrotation Xrotation Yrotation
        End Site
        {
          OFFSET 0 -5 15
        }
      }
    }
  }
  JOINT pelvis_spine1
  {
    OFFSET 0 6.468898 -3.129235
    CHANNELS 3 Zrotation Xrotation Yrotation
    JOINT spine1
    {
      OFFSET 0 23.15396 4.99043
      CHANNELS 3 Zrotation Xrotation Yrotation
      JOINT spine2
      {
        OFFSET 0 20.79997 -5.064912
        CHANNELS 3 Zrotation Xrotation Yrotation
        JOINT neck
        {
          OFFSET 0 14.38658 9.616178
          CHANNELS 3 Zrotation Xrotation Yrotation
          End Site
          {
            OFFSET 0 20 0
          }
        }
      }
      JOINT right_manubrium
      {
        OFFSET -5.722621 16.35077 3.967754
        CHANNELS 3 Zrotation Xrotation Yrotation
        JOINT right_clavicle
        {
          OFFSET -13.16364 1.694482 -4.693211
          CHANNELS 3 Zrotation Xrotation Yrotation
          JOINT right_humerus
          {
            OFFSET -28.5034 -0.3100689 -2.792744
            CHANNELS 3 Zrotation Xrotation Yrotation
            JOINT right_radius
            {
              OFFSET -25.15693 0.02248979 -1.271978
              CHANNELS 3 Zrotation Xrotation Yrotation
              End Site
              {
                OFFSET -15 0 0
              }
            }
          }
        }
      }
      JOINT left_manubrium
      {
        OFFSET 5.722621 16.35077 3.967754
        CHANNELS 3 Zrotation Xrotation Yrotation
        JOINT left_clavicle
        {
          OFFSET 13.16364 1.694482 -4.693211
          CHANNELS 3 Zrotation Xrotation Yrotation
          JOINT left_humerus
          {
            OFFSET 29.39168 -1.063119 -2.237045
            CHANNELS 3 Zrotation Xrotation Yrotation
            JOINT left_radius
            {
              OFFSET 24.59957 -0.9528479 0.9047498
              CHANNELS 3 Zrotation Xrotation Yrotation
              End Site
              {
                OFFSET 15 -0 -0
              }
            }
          }
        }
      }
    }
  }
}
MOTION
Frames: 13
Frame Time: 0.0416666666667
0 103.5113 0 0.7430163 -0.2608654 0.004145562 3.958812 -17.9139 9.903214 -0 40.10583 -0 -5.201662 -16.9736 -3.293942 -7.188753 10.29571 -24.03277 -0 4.583597 -0 9.849713 -16.29783 27.36369 -3.533793 -3.586954 4.739189 2.174355 9.149291 -7.196074 1.681098 22.12104 6.823244 2.936724 -24.61065 10.0341 6.85782 -19.6895 11.3362 84.89615 37.0898 -17.66767 -0 0 16.7209 -6.621675 9.387493 4.402548 5.753762 -18.56522 -1.205422 -94.12856 26.99823 22.39295 0 0 -15.03947 8.815435 17.66507 4.565051
0.3264425 103.5967 1.433596 0.6967766 -0.1628193 0.009931216 4.052017 -18.28193 9.870511 -0 39.6555 -0 -5.204351 -16.77136 -3.271748 -7.169722 10.32329 -23.94564 -0 4.616276 -0 9.749748 -16.47978 27.28219 -3.490148 -3.535652 4.761863 2.175646 9.143633 -7.212214 1.689189 22.07571 6.848392 2.964456 -24.68129 10.05504 6.815249 -19.68717 11.32162 84.97369 37.08066 -17.78815 -0 0 16.68238 -6.605468 9.392429 4.362126 5.819104 -18.66266 -1.195174 -94.13153 27.07544 22.40003 0 0 -15.28457 8.781898 17.64088 4.678463
0.6500213 103.2975 3.749653 0.04853751 0.7571258 0.140625 4.582162 -24.30732 6.687623 -0 31.03317 -0 -5.870503 -11.37382 -2.116308 -6.548792 11.53957 -21.31394 -0 4.519572 -0 6.780854 -19.42046 23.96877 -2.686936 -2.731891 4.565827 1.984011 9.38047 -7.512928 1.498387 21.39155 7.415872 3.800077 -24.70241 9.622461 5.927308 -19.30758 11.21448 86.19596 35.72933 -19.59751 -0 0 15.63313 -9.099088 9.787529 4.785432 7.248552 -21.03464 -1.750602 -92.2465 26.17177 20.16817 0 0 -19.92822 8.947789 17.10571 4.518885
0.9508013 102.9181 6.259468 -0.3146133 1.49346 0.3411837 5.311345 -26.65452 6.802407 -0 28.29995 -0 -5.863305 -10.24783 -2.042226 -6.40221 11.85771 -20.85864 -0 5.184879 -0 5.983853 -20.49825 23.39878 -2.418336 -2.383909 4.624782 2.075553 9.240848 -7.623865 1.581365 21.09885 7.588393 3.922508 -25.25202 9.889588 5.718131 -19.1578 11.08856 86.63687 35.89416 -20.3301 -0 0 15.22469 -8.687132 9.895269 4.43815 7.551759 -21.45389 -1.562057 -92.35771 26.90047 20.26615 0 0 -21.33644 8.612945 16.93008 5.368365
1.238147 102.5 9.009785 -0.6563535 2.445599 0.6259465 6.280811 -29.20011 7.289363 -0 25.5884 -0 -5.82876 -8.999147 -1.891235 -6.320723 12.09803 -20.31926 -0 6.057967 -0 6.172198 -21.17166 23.27516 -2.298341 -2.11351 4.697155 2.341409 9.209976 -7.813351 1.646153 20.69098 7.706384 3.997654 -25.99307 10.17913 5.593866 -19.02335 11.05423 87.0366 36.39565 -21.0083 -0 0 14.66609 -7.968857 9.853774 4.080525 7.82621 -21.80856 -1.255189 -92.1707 26.67022 20.07207 0 0 -22.59303 9.454267 16.25457 4.72955
1.52296 102.0278 12.02932 -0.9611432 3.174757 0.9943984 7.021952 -31.28903 7.426446 -0 23.23803 -0 -5.886501 -7.65869 -1.657544 -6.206803 12.46487 -19.74054 -0 6.80206 -0 6.068122 -21.73767 22.8923 -2.194202 -1.873898 4.637084 2.566659 9.186693 -7.970805 1.65678 20.37195 7.850984 4.09858 -26.5055 10.37333 5.478828 -18.81207 11.03792 87.37849 36.72524 -21.56318 -0 0 14.04254 -7.639114 9.868709 3.907186 8.047523 -22.1411 -1.07834 -91.83122 26.32096 19.65531 0 0 -23.68102 10.13899 15.66721 4.051221
1.813498 101.4957 15.38905 -1.243114 3.689196 1.436504 7.530424 -33.08706 7.087313 -0 20.89789 -0 -6.058731 -6.128433 -1.323185 -6.044478 12.99835 -18.97106 -0 7.614494 -0 5.697058 -22.16426 22.17034 -2.074083 -1.668445 4.445553 2.757489 9.20523 -8.129847 1.60408 20.11306 8.006031 4.228304 -26.77411 10.42555 5.320706 -18.51843 11.0408 87.71269 36.80193 -22.05009 -0 0 13.31081 -7.790955 9.938082 3.920439 8.26522 -22.54087 -1.049293 -91.19136 25.6061 18.82547 0 0 -24.72429 10.86802 15.08687 3.038006
2.116468 100.927 19.13016 -1.533735 4.106451 1.952976 7.968183 -34.63649 6.606325 -0 18.67672 -0 -6.282248 -4.588817 -0.9605595 -5.858476 13.63108 -18.13526 -0 8.651993 -0 5.166671 -22.45024 21.28544 -1.943843 -1.480372 4.166807 2.95411 9.215417 -8.286846 1.524631 19.89642 8.166077 4.345832 -26.95206 10.4454 5.155695 -18.14997 11.04717 88.04158 36.80986 -22.48931 -0 0 12.47326 -8.07956 10.04278 3.99631 8.424541 -22.89907 -1.072882 -90.4816 24.77492 17.85385 0 0 -25.63587 11.57204 14.50486 1.902853
2.438325 100.3489 23.3094 -1.837505 4.414819 2.539231 8.349582 -35.87088 5.978444 -0 16.56263 -0 -6.57105 -3.040805 -0.5687886 -5.64459 14.37307 -17.19006 -0 10.09064 -0 4.486215 -22.51113 20.21539 -1.794893 -1.315155 3.784826 3.169444 9.220104 -8.446999 1.413051 19.7289 8.324284 4.434834 -27.04278 10.4318 4.968846 -17.68915 11.05951 88.38852 36.7333 -22.8821 -0 0 11.4741 -8.502673 10.17666 4.138641 8.499566 -23.20196 -1.156545 -89.68952 23.75454 16.70481 0 0 -26.3689 12.30815 13.88611 0.5453953
2.785379 99.80643 27.97992 -2.145967 4.550106 3.177554 8.651268 -36.52702 5.203825 -0 14.71202 -0 -6.939173 -1.604913 -0.174759 -5.398012 15.18104 -16.13461 -0 12.14873 -0 3.589822 -22.20786 18.91988 -1.602337 -1.186994 3.293199 3.390448 9.212069 -8.594767 1.268012 19.64719 8.464875 4.466071 -27.02143 10.38131 4.747662 -17.13084 11.07392 88.7659 36.52155 -23.19541 -0 0 10.30204 -9.069212 10.34591 4.359154 8.433711 -23.39921 -1.320324 -88.88044 22.59353 15.43655 0 0 -26.76999 12.99878 13.27574 -0.9511584
3.161459 99.36571 33.16891 -2.425649 4.378055 3.818672 8.79604 -36.13168 4.251041 -0 13.36786 -0 -7.414482 -0.5043296 0.1656782 -5.111873 15.90265 -14.97234 -0 15.13714 -0 2.366312 -21.31052 17.33507 -1.310428 -1.126578 2.722986 3.562659 9.200452 -8.694171 1.09163 19.71711 8.551123 4.397052 -26.82773 10.26559 4.452413 -16.51427 11.08607 89.20797 36.02516 -23.38087 -0 0 9.006958 -9.854963 10.5572 4.699368 8.156532 -23.44594 -1.609946 -88.16091 21.41411 14.18824 0 0 -26.62336 13.47463 12.80261 -2.341807
3.56433 99.10712 38.8204 -2.615181 3.740908 4.367514 8.66835 -34.10417 3.127683 -0 12.79416 -0 -8.029979 -0.06304629 0.3554086 -4.784098 16.13516 -13.77175 -0 19.32133 -0 0.6660346 -19.58466 15.41801 -0.819131 -1.170444 2.224149 3.556344 9.222658 -8.670108 0.9115176 20.01296 8.526204 4.188269 -26.41002 10.04863 4.013389 -15.99527 11.09096 89.78566 35.00115 -23.40918 -0 0 7.808295 -10.97866 10.81934 5.231774 7.623612 -23.3447 -2.071021 -87.7443 20.59037 13.35418 0 0 -25.77262 13.3676 12.74666 -2.929324
3.981932 99.08497 44.75921 -2.654595 2.579522 4.699894 8.174647 -30.27586 1.88353 -0 12.88752 -0 -8.829087 -0.4310824 0.3044512 -4.417527 15.25682 -12.65738 -0 24.73858 -0 -1.593001 -17.02523 13.20046 -0.0136352 -1.33241 2.096507 3.182984 9.371383 -8.431143 0.7990157 20.54154 8.339418 3.852951 -25.78424 9.709387 3.316536 -15.86344 11.08813 90.62574 33.18712 -23.35909 -0 0 7.090616 -12.62291 11.16579 6.065899 6.914022 -23.25916 -2.709338 -87.83443 20.6521 13.51604 0 0 -24.53988 12.19608 13.42612 -1.622199
